<svg xmlns="http://www.w3.org/2000/svg" width="63.182" height="63.188" viewBox="0 0 63.182 63.188"><g transform="translate(-930.774 -1404.42)"><path d="M962.364,1404.42a31.594,31.594,0,1,0,31.592,31.593A31.592,31.592,0,0,0,962.364,1404.42Zm-25.017,33.537a1.639,1.639,0,0,1-1.618-1.677,1.615,1.615,0,0,1,1.658-1.628,1.634,1.634,0,0,1,1.675,1.652A1.651,1.651,0,0,1,937.346,1437.957Zm25.017,18.224a20.167,20.167,0,1,1,20.167-20.168A20.166,20.166,0,0,1,962.364,1456.181Zm25.123-18.224a1.636,1.636,0,0,1-1.618-1.677,1.612,1.612,0,0,1,1.656-1.628,1.634,1.634,0,0,1,1.675,1.652A1.651,1.651,0,0,1,987.487,1437.957Z" fill="#b8cd68"/><path d="M989.124,1439.15c-.072.377-.145.755-.222,1.155a.653.653,0,0,0-.9-.241,1.541,1.541,0,0,0-.173,1.27c.075.058.155.111.234.164.332.215.354.209.558-.111a1.741,1.741,0,0,1-.153.934c-.066-.392-.35-.533-.6-.706-.646-.441-1.294-.878-1.939-1.321-.062-.043-.183-.062-.153-.173.024-.085.124-.062.194-.077.806-.168,1.613-.33,2.417-.5.264-.057.56-.077.656-.428l.083.04m-2.69,1.238c.394.266.725.492,1.085.735l.194-1c-.431.089-.821.172-1.279.268" fill="#2f4033" fill-rule="evenodd"/><path d="M937.386,1434.652a1.634,1.634,0,0,1,1.675,1.652,1.666,1.666,0,0,1-3.333-.025,1.615,1.615,0,0,1,1.658-1.628" fill="#d12d2d" fill-rule="evenodd"/><path d="M987.525,1434.652a1.634,1.634,0,0,1,1.675,1.652,1.665,1.665,0,0,1-3.331-.025,1.612,1.612,0,0,1,1.656-1.628" fill="#d12d2d" fill-rule="evenodd"/><path d="M978.226,1456.5c-.375-.469-.746-.929-1.112-1.392-.162-.205-.331-.089-.537-.07l.729-.571.089.028c-.3.254-.124.448.026.641.435.56.876,1.115,1.307,1.679a.62.62,0,0,1,.2.36c-1.01-.224-2-.447-3.1-.691.266.345.471.616.678.884.13.168.262.335.392.5.175.222.335.49.693.124l0,.123c-.262.205-.522.411-.821.644.013-.2.236-.269.16-.432a2.06,2.06,0,0,0-.237-.373c-.341-.446-.7-.878-1.029-1.332a.538.538,0,0,0-.733-.177c.038.132.145.184.222.26a1.92,1.92,0,1,1-3.091,1.814,1.8,1.8,0,0,1,.571-1.9,1.711,1.711,0,0,1,1.922-.305c.177.075.316.092.446-.056a.835.835,0,0,1,.97-.205c.64.179,1.3.307,1.944.454a.386.386,0,0,0,.3-.007m-5.736.949a2.916,2.916,0,0,0,1.211,2.208,1,1,0,0,0,1.134.011,1.051,1.051,0,0,0,.526-1.078,2.9,2.9,0,0,0-1.185-1.952.987.987,0,0,0-1.108-.057.968.968,0,0,0-.578.867" fill="#2f4033" fill-rule="evenodd"/><path d="M940.455,1451.433a.369.369,0,0,0,.463-.045c.51-.394,1.032-.774,1.547-1.166.347-.262.343-.266.237-.754.5.669.959,1.258,1.381,1.873a4.121,4.121,0,0,0,.486.533.315.315,0,0,1,.081.388c-.271.71-.526,1.426-.787,2.14.145.083.245-.011.343-.047.588-.211,1.175-.422,1.752-.659a.393.393,0,0,1,.544.121,2.348,2.348,0,0,1,.4.494c-.36-.352-.569-.164-.782.055-.407.416-.818.831-1.236,1.236-.219.211-.411.411-.158.731l-.629-.748c.305-.049.686-.382,1.663-1.569l-2.545.929c.309-.872.591-1.671.874-2.468.04-.026.064-.075.034-.1-.045-.043-.057.026-.081.049-.409.4-.81.808-1.225,1.2-.211.2-.324.394-.058.616l-.714-.691c.33.349.524.021.744-.194.394-.384.782-.776,1.17-1.166a1.305,1.305,0,0,0,.224-.267.3.3,0,0,0-.089-.373c-.132-.134-.17.049-.251.081s-.126.141-.275.138c.158-.241.3-.473.077-.739-.179-.209-.33-.441-.5-.661-.06-.079-.109-.011-.154.023q-.359.266-.714.533c-.066.049-.143.094-.057.2.156.187.3.384.46.567s.33.045.512.036a4.319,4.319,0,0,1-.85.663.915.915,0,0,0-.281-1.189c-.092-.073-.134-.007-.183.03-.247.183-.488.373-.735.556a.218.218,0,0,0-.036.371.8.8,0,0,1,.077.1c.283.441.6.816,1.273.6-.445.407-.763.388-1.046,0l-1.019-1.379.058-.043" fill="#2f4033" fill-rule="evenodd"/><path d="M938.2,1447.812c.418.341.446.345.932.077.629-.349,1.266-.688,1.888-1.049.6-.345.558-.215.518-.878l.774,1.4c-.478-.333-.48-.337-1.034-.032-.247.137-.62.241-.7.448s.217.492.356.735.215.661.461.714c.213.043.494-.234.746-.369l.026-.015c.527-.3.527-.3.484-.857q.384.69.771,1.383l-.075.034c-.369-.4-.311-.394-.876-.092-.663.354-1.317.725-1.972,1.091-.484.271-.486.275-.42.814-.254-.462-.511-.921-.776-1.4.153-.028.16.064.2.117a.331.331,0,0,0,.471.111c.354-.192.706-.386,1.063-.573.121-.062.1-.126.047-.226-.232-.405-.462-.81-.676-1.225-.077-.151-.151-.132-.269-.064-.266.153-.541.29-.8.45-.211.13-.509.2-.411.6l-.092-.03c-.213-.388-.424-.774-.635-1.162" fill="#2f4033" fill-rule="evenodd"/><path d="M975.85,1417.188l-.812-.618c.234,0,.343.158.5.081a.96.96,0,0,0,.309-.313c.375-.473.752-.944,1.113-1.426.119-.156.313-.288.213-.55-.04-.1.092-.089.154-.07a.544.544,0,0,1,.365.675c-.177.759-.349,1.518-.537,2.336l1.891-.985c.575-.3.778-.251,1.274.4-.422-.343-.6-.1-.793.147-.375.484-.75.97-1.132,1.451-.194.243-.377.475-.1.8l-1.017-.793c.426.23.6-.092.793-.343a14.257,14.257,0,0,0,1.013-1.421c-.369.192-.742.382-1.111.573-.386.2-.771.4-1.157.6-.062.032-.134.1-.2.045s-.017-.138,0-.209q.254-1.063.5-2.127c.023-.1.034-.207.051-.311.045-.024.058-.079.028-.1-.047-.03-.051.034-.07.062-.407.514-.814,1.031-1.223,1.543a.353.353,0,0,0-.009.509l-.045.053" fill="#2f4033" fill-rule="evenodd"/><path d="M939.3,1431.114a5.69,5.69,0,0,1-.379,1.213c-.011-.5-.388-.707-.7-.961-.776-.641-1.56-1.27-2.336-1.91-.1-.083-.292-.151-.249-.288s.239-.085.367-.1q1.636-.206,3.276-.39a.916.916,0,0,0,.8-.448,9,9,0,0,1-.371,1.521c-.049-.019-.081-.025-.083-.032-.043-.452-.057-.465-.52-.43-.659.047-.659.047-.853.69-.015.051-.024.1-.04.153-.217.767-.213.761.424,1.215.226.162.379.151.5-.107.024-.049.028-.132.162-.122m-2.831-1.536c.445.365.831.676,1.209.993.113.1.151.058.185-.064.087-.315.181-.625.271-.94.041-.134.019-.188-.145-.166-.479.066-.959.113-1.52.177" fill="#2f4033" fill-rule="evenodd"/><path d="M978.659,1419.328a.345.345,0,0,0,.458-.071c.548-.531,1.089-1.068,1.645-1.59.23-.215.085-.388-.009-.6a7.1,7.1,0,0,1,1.445,1.609.745.745,0,0,1-.073.838.673.673,0,0,1-.763.249.525.525,0,0,0-.136,0,.975.975,0,0,0,.03.134.706.706,0,0,1-.2.863.815.815,0,0,1-.951.077,2.373,2.373,0,0,1-.609-.5,10.06,10.06,0,0,1-.885-.95l.049-.057m1.577,1.191a.643.643,0,0,0,.588-.916,1.958,1.958,0,0,0-.5-.65c-.072-.068-.132-.092-.213-.01-.247.247-.5.488-.75.731a.142.142,0,0,0-.034.17,1.293,1.293,0,0,0,.9.674m1.656-1.735a1.06,1.06,0,0,0-.558-.865c-.264-.09-.345.209-.492.341-.524.469-.49.658.128,1.036a.585.585,0,0,0,.6.026.566.566,0,0,0,.322-.539" fill="#2f4033" fill-rule="evenodd"/><path d="M975.766,1414.241a1.755,1.755,0,0,1-1.69,1.76,1.544,1.544,0,0,1-1.522-1.552,1.73,1.73,0,0,1,1.675-1.765,1.514,1.514,0,0,1,1.537,1.558m-2.767.575a.839.839,0,0,0,.526.867.9.9,0,0,0,1.032-.175,2.436,2.436,0,0,0,.774-1.622.863.863,0,0,0-.5-.882.83.83,0,0,0-.978.107,2.361,2.361,0,0,0-.855,1.705" fill="#2f4033" fill-rule="evenodd"/><path d="M935.933,1440.564c.094.39.364.35.633.3.612-.119,1.223-.247,1.835-.36.281-.051.48-.151.448-.5a11.546,11.546,0,0,1,.343,1.686,1.483,1.483,0,0,1-1.562,1.658,1.34,1.34,0,0,1-1.2-.7,6.161,6.161,0,0,1-.5-2.082m1.581,2.227c.064,0,.128,0,.19,0a1.252,1.252,0,0,0,1.187-1.731c-.049-.119-.092-.188-.251-.155q-1.071.226-2.149.422c-.164.03-.2.1-.2.256a1.164,1.164,0,0,0,1.224,1.21" fill="#2f4033" fill-rule="evenodd"/><path d="M942.484,1423.482a1.553,1.553,0,0,1-1.532,1.547,1.8,1.8,0,0,1-1.776-1.72,1.54,1.54,0,0,1,1.582-1.521,1.779,1.779,0,0,1,1.726,1.694m-.252.207a.808.808,0,0,0-.158-.509,2.508,2.508,0,0,0-1.573-.995.856.856,0,0,0-.927.413.828.828,0,0,0,.011.985,2.249,2.249,0,0,0,1.709,1.029.868.868,0,0,0,.938-.923" fill="#2f4033" fill-rule="evenodd"/><path d="M983.979,1426.881c-.128-.268-.254-.535-.422-.886a.705.705,0,0,0,.829-.011c.439-.211.88-.416,1.323-.622.535-.245.659-.156.6-1.014.241.443.5.771.209,1.276-.411.712-.731,1.477-1.1,2.244a.57.57,0,0,0,.331-.1c.4-.187.8-.382,1.209-.563.281-.126.512-.266.358-.65a1.769,1.769,0,0,1,.356.812c-.2-.168-.369-.079-.542,0-.8.375-1.611.748-2.492,1.078.463-.97.925-1.94,1.407-2.952a2.247,2.247,0,0,0-.6.241c-.339.149-.674.309-1.008.465-.279.132-.6.239-.452.678" fill="#2f4033" fill-rule="evenodd"/><path d="M953.623,1459.114A1.674,1.674,0,0,1,952,1460.78a1.5,1.5,0,0,1-1.441-1.481,1.657,1.657,0,0,1,1.624-1.688,1.456,1.456,0,0,1,1.435,1.5m-2.62.38c-.008.56.151.831.5.985a.889.889,0,0,0,1.04-.232,2.485,2.485,0,0,0,.656-1.383.858.858,0,0,0-.422-.919.808.808,0,0,0-1.023.107,2.274,2.274,0,0,0-.753,1.441" fill="#2f4033" fill-rule="evenodd"/><path d="M959.086,1460.78a1.612,1.612,0,0,1-1.549,1.677,1.479,1.479,0,0,1-1.471-1.509,1.594,1.594,0,0,1,1.543-1.677,1.49,1.49,0,0,1,1.477,1.509m-.51-.23a2.178,2.178,0,0,0,0-.222.9.9,0,0,0-.686-.854.844.844,0,0,0-.968.437,2.281,2.281,0,0,0-.315,1.615.831.831,0,0,0,.659.727.882.882,0,0,0,.959-.405,2.476,2.476,0,0,0,.352-1.3" fill="#2f4033" fill-rule="evenodd"/><path d="M986.39,1447.87a1.463,1.463,0,0,1-1.471,1.438,1.67,1.67,0,0,1-1.69-1.626,1.491,1.491,0,0,1,1.507-1.447,1.688,1.688,0,0,1,1.654,1.635m-1.933-1.209a.887.887,0,0,0-.914.473.818.818,0,0,0,.094.923,2.213,2.213,0,0,0,1.648.831.794.794,0,0,0,.8-.475.829.829,0,0,0-.126-.976,2.334,2.334,0,0,0-1.5-.776" fill="#2f4033" fill-rule="evenodd"/><path d="M981.709,1454.075a1.721,1.721,0,0,1-1.686-1.609,1.485,1.485,0,0,1,1.471-1.511,1.71,1.71,0,0,1,1.647,1.649,1.461,1.461,0,0,1-1.432,1.471m.318-.33a.854.854,0,0,0,.77-1.217,2.126,2.126,0,0,0-1.518-1.236.851.851,0,0,0-.968.933,2.083,2.083,0,0,0,1.716,1.52" fill="#2f4033" fill-rule="evenodd"/><path d="M961.88,1459.747v.923c-.113-.032-.1-.132-.132-.2a.968.968,0,0,0-.819-.616,1,1,0,0,0-.989.447,1.842,1.842,0,0,0,0,1.954,1.093,1.093,0,0,0,1.241.4c.124-.04.2-.089.2-.235,0-.234.032-.465.041-.7.011-.251-.015-.484-.407-.477a2.757,2.757,0,0,1,1.253.013c-.4.057-.39.311-.4.561a2.532,2.532,0,0,0-.028.443c.055.377-.162.494-.471.569a1.728,1.728,0,0,1-2.172-1.046,1.581,1.581,0,0,1,.463-1.682,1.477,1.477,0,0,1,1.616-.322c.4.138.4.139.6-.028" fill="#2f4033" fill-rule="evenodd"/><path d="M986.451,1443.373c-.015.324.2.409.43.486a3.006,3.006,0,0,0,.511.17c.316.049.373.245.369.516a1.878,1.878,0,0,1-1.191,1.816,1.617,1.617,0,0,1-1.788-.646,1.529,1.529,0,0,1,0-1.811q.062-.093.13-.181c.094-.128.207-.254.04-.433l.882.224c-.045.158-.162.1-.239.106a.934.934,0,0,0-.8.591,1,1,0,0,0,.124,1.076,1.854,1.854,0,0,0,1.873.561,1.073,1.073,0,0,0,.742-1.127c-.009-.1-.021-.19-.143-.213-.384-.072-.716-.381-1.147-.254-.068.021-.13-.013-.1-.1.1-.26.2-.518.307-.778" fill="#2f4033" fill-rule="evenodd"/><path d="M938.162,1424.818l.995.467c-.139.094-.222.032-.3.019a.86.86,0,0,0-.978.573.494.494,0,0,0,.145.548.421.421,0,0,0,.5.028,2.292,2.292,0,0,0,.3-.179c.2-.136.4-.281.6-.416.51-.347.948-.358,1.27-.036a1.013,1.013,0,0,1,.026,1.339,3.222,3.222,0,0,1-.241.294c-.17.2-.17.2-.111.469a7.223,7.223,0,0,1-.966-.46c.106-.1.171-.038.239-.026a.884.884,0,0,0,1.015-.571.544.544,0,0,0-.113-.669.521.521,0,0,0-.65-.008c-.341.213-.663.456-1.01.657a.8.8,0,0,1-1-.081.909.909,0,0,1-.185-1,1.337,1.337,0,0,1,.345-.488.342.342,0,0,0,.119-.464" fill="#2f4033" fill-rule="evenodd"/><path d="M939.6,1445.175c.494-.241.418-.548.284-.9-.247-.635-.235-.639-.861-.411-.5.183-.494.179-.318.673.105.3.232.546.629.514l-.948.35c.514-.4.113-.788.019-1.172-.026-.109-.1-.115-.2-.077-.286.109-.575.217-.861.32a.219.219,0,0,0-.151.322c.075.2.145.4.215.6a.681.681,0,0,0,.531.45.425.425,0,0,1,.328.168c-.268,0-.484,0-.7,0a.158.158,0,0,1-.168-.117c-.247-.682-.494-1.366-.723-2.089.224.433.52.245.808.141q.833-.305,1.669-.6c.262-.092.45-.217.26-.556.177.015.162.141.187.209.209.554.392,1.117.612,1.666.1.239.089.371-.185.43a.807.807,0,0,1-.43.081" fill="#2f4033" fill-rule="evenodd"/><path d="M985.784,1432.277l-.333-1.166c.177.132.315.313.537.1s.607-.292.4-.727a1.181,1.181,0,0,1-.115-.4c-.028-.362-.222-.486-.571-.512-.43-.034-.467-.032-.528.447a3.628,3.628,0,0,1-.283-.993c.358.409.855.322,1.3.39.722.113,1.449.185,2.172.277a.451.451,0,0,1,.128.058,3.354,3.354,0,0,1-.6.527c-.55.448-1.11.885-1.661,1.33a.7.7,0,0,0-.354.671l-.085-.006m1.92-2.434c-.437-.06-.8-.111-1.161-.158-.107-.013-.2,0-.151.149a5.273,5.273,0,0,0,.273.848c.339-.275.663-.535,1.038-.838" fill="#2f4033" fill-rule="evenodd"/><path d="M985.317,1422.491l-1.266,1.854c-.119.175-.235.352-.354.526a.752.752,0,0,0-.164.714l-.072.034c-.219-.337-.439-.672-.657-1.01.373.171.38.149.652-.185.22-.269.269-.5.009-.761a.759.759,0,0,1-.171-.266c-.147-.369-.407-.407-.754-.311-.39.107-.407.109-.371.548l-.524-.8c.637.271,1.209-.06,1.793-.124.616-.068,1.225-.2,1.837-.307l.041.09m-.718.247c-.441.075-.8.139-1.164.2-.1.015-.213.009-.113.162.162.247.324.5.507.776l.771-1.138" fill="#2f4033" fill-rule="evenodd"/><path d="M947.152,1418.518l-.748.592a1.517,1.517,0,0,0-.085-1.091c-.194-.757-.4-1.513-.6-2.27-.019-.075-.1-.168-.017-.235s.158.028.226.066c.769.426,1.532.861,2.3,1.289a.8.8,0,0,0,.8.123,3.444,3.444,0,0,1-.995.754c.284-.33.017-.415-.17-.562a.513.513,0,0,0-.81.055,1.137,1.137,0,0,1-.175.136c-.443.347-.465.482-.232,1,.124.275.3.134.475.064l.028.077m-1.085-2.346c.113.441.2.827.311,1.208.043.153.134.042.19,0,.224-.168.443-.345.69-.539-.4-.222-.765-.428-1.191-.667" fill="#2f4033" fill-rule="evenodd"/><path d="M950.083,1412.7l.58.9c-.13.04-.164-.045-.215-.083a1.052,1.052,0,0,0-1.716,1.091,2.375,2.375,0,0,0,.571,1.083,1.059,1.059,0,0,0,1.117.347,1.089,1.089,0,0,0,.844-.853c.024-.113.057-.224.094-.379a.634.634,0,0,1,0,.558,1.507,1.507,0,0,1-2.424.674,1.734,1.734,0,0,1-.635-1.671,1.508,1.508,0,0,1,1.083-1.249,1.084,1.084,0,0,1,.277-.056c.215-.017.4-.058.426-.358" fill="#2f4033" fill-rule="evenodd"/><path d="M943.386,1419.074c-.139.081-.22,0-.3-.025a.981.981,0,0,0-1.119.3.966.966,0,0,0-.141,1.149,2.123,2.123,0,0,0,1.136,1.059,1.135,1.135,0,0,0,1.541-1.219c-.015-.109-.081-.217,0-.362a1.245,1.245,0,0,1,.109.929,1.515,1.515,0,0,1-2.019,1.047,1.719,1.719,0,0,1-1.179-1.52,1.489,1.489,0,0,1,.948-1.569c.209-.1.188-.241.1-.5l.931.71" fill="#2f4033" fill-rule="evenodd"/><path d="M946.524,1457.584c.326.194.4.008.492-.23.134-.345.111-.6-.252-.776a.8.8,0,0,1-.226-.172.471.471,0,0,0-.706-.051c-.352.245-.369.234-.134.689l-.8-.6a1.437,1.437,0,0,0,.914-.307c.68-.386,1.358-.78,2.038-1.168.057-.032.117-.115.194-.045.058.055,0,.119-.013.177-.2.808-.414,1.617-.612,2.428-.064.262-.177.539.1.774l-.072.057c-.309-.23-.616-.458-.925-.686l0-.092m-.154-1.528c.283.213.537.4.821.614l.316-1.264c-.4.23-.746.428-1.138.65" fill="#2f4033" fill-rule="evenodd"/><path d="M964.568,1462.728a2.392,2.392,0,0,1-.806.089c.4-.236.441-.624.55-.974.213-.675.42-1.351.633-2.027.025-.077.023-.194.109-.211.124-.025.132.115.173.19.4.712.784,1.426,1.177,2.14.128.232.253.467.561.526a6.187,6.187,0,0,1-1.166.175c.081-.158.333-.156.269-.332a3.747,3.747,0,0,0-.332-.648c-.021-.036-.138-.026-.209-.021-.138.011-.273.04-.411.051-.674.058-.518.007-.714.58a.356.356,0,0,0,.164.462m.448-2.427c-.139.447-.26.833-.39,1.253a8.126,8.126,0,0,0,1-.134l-.614-1.119" fill="#2f4033" fill-rule="evenodd"/><path d="M969.624,1458.73a2.566,2.566,0,0,1,.872-.292,5.849,5.849,0,0,0-.554,1.722c-.143.48.126.859.29,1.26.073.177.269.053.461.1a5.867,5.867,0,0,1-1.236.411c.392-.156.286-.409.211-.69a1.516,1.516,0,0,0-.667-.953c-.284-.181-.539-.409-.808-.616a.942.942,0,0,0-.586-.239,8.047,8.047,0,0,1,1.228-.477c-.091.183-.313.2-.258.379.047.147.187.226.3.317.264.211.531.414.825.641.092-.394.179-.752.26-1.11.06-.266.032-.477-.341-.456" fill="#2f4033" fill-rule="evenodd"/><path d="M979.23,1452.648a2.116,2.116,0,0,1,.582.616.37.37,0,0,1-.284,0,.97.97,0,0,0-1.161,1.21,1.962,1.962,0,0,0,1.025,1.234,1.076,1.076,0,0,0,1.549-.94.838.838,0,0,1,.034-.43,1.19,1.19,0,0,1,.028.876,1.467,1.467,0,0,1-2.37.6,1.548,1.548,0,0,1,.429-2.724c.187-.079.205-.2.168-.437" fill="#2f4033" fill-rule="evenodd"/><path d="M950.965,1457.809a.61.61,0,0,0,.019-.49.833.833,0,0,0-.546-.407c-.151-.03-.2.211-.277.335-.322.5-.629,1-.948,1.5-.154.243-.288.479.077.692l-.07.049q-.523-.328-1.047-.654c.158-.036.315.077.439-.036a1.642,1.642,0,0,0,.267-.351c.333-.527.654-1.062,1-1.584.113-.175.132-.268-.075-.386-.424-.245-.492-.254-.87.04a1.494,1.494,0,0,1,.3-.543c.081-.058.136-.006.2.034.6.375,1.2.754,1.8,1.123.13.081.145.156.062.279-.09.138-.166.282-.249.424l-.075-.026" fill="#2f4033" fill-rule="evenodd"/><path d="M953.971,1458.33l1.29.4c-.105.1-.188.041-.258.036a.293.293,0,0,0-.341.217c-.219.7-.431,1.394-.646,2.089a.216.216,0,0,0,.153.3,3.781,3.781,0,0,0,.825.22c.326.036.518-.2.786-.347-.149.213-.3.43-.446.641-.036.053-.09.034-.143.017-.7-.215-1.407-.428-2.134-.689.473.107.52-.23.609-.516.175-.565.343-1.132.522-1.7.085-.269.119-.509-.281-.59l.066-.077" fill="#2f4033" fill-rule="evenodd"/><path d="M981.417,1450.423c.211-.343.424-.688.637-1.031-.073.539-.188.428.382.814.473.32.961.618,1.434.938.22.151.384.147.52-.1a1.8,1.8,0,0,1,.138-.213.894.894,0,0,0,.04-1.224,2.291,2.291,0,0,1,.543.524.142.142,0,0,1,.006.173c-.407.625-.814,1.249-1.258,1.869.185-.366-.019-.537-.286-.7-.529-.33-1.049-.676-1.573-1.016-.181-.117-.36-.19-.535.008a.237.237,0,0,0-.045-.042" fill="#2f4033" fill-rule="evenodd"/><path d="M945.232,1420.174c.4-.33.151-.552-.06-.78-.418-.448-.842-.893-1.251-1.349-.219-.243-.431-.415-.778-.19l.961-.9c-.311.411.013.633.243.878.4.426.8.848,1.189,1.277.207.23.413.411.727.115l.03.077-.961.9-.1-.022" fill="#2f4033" fill-rule="evenodd"/><path d="M963.615,1462.846h-1.253c.418-.04.39-.347.386-.635-.009-.592-.038-1.185-.028-1.777,0-.318-.058-.543-.424-.6h1.255c-.414.038-.4.33-.392.629.017.592.036,1.185.034,1.777,0,.309.057.546.422.607" fill="#2f4033" fill-rule="evenodd"/><path d="M988.336,1442.616a3.207,3.207,0,0,1-.243,1.068c.049-.405-.218-.475-.5-.543-.565-.132-1.127-.279-1.69-.414-.454-.111-.456-.109-.735.22l.3-1.208c-.013.394.23.482.533.55.616.139,1.23.294,1.842.454a.4.4,0,0,0,.492-.128" fill="#2f4033" fill-rule="evenodd"/><path d="M984.5,1441.636c.2.29.386.552.614.874-.776-.309-.81-.358-.614-.874" fill="#2f4033" fill-rule="evenodd"/><path d="M962.778,1459.593c.049-.778.075-.806.616-.744-.217.26-.416.5-.616.744" fill="#2f4033" fill-rule="evenodd"/><path d="M984,1420.669a1.032,1.032,0,0,0-.158-.211q-.322-.4-.646-.8l-.092.017c.309.36.077.544-.169.738-.465.367-.921.746-1.385,1.117a1.555,1.555,0,0,1-.392.268c-.187.073-.279-.113-.456-.121l.823,1.014.083-.036c-.235-.286-.126-.484.119-.672.509-.4,1.008-.808,1.509-1.215a.913.913,0,0,1,.456-.25.431.431,0,0,1,.243.2c.045-.006.087-.006.066-.049" fill="#2f4033" fill-rule="evenodd"/><path d="M978.61,1419.384c-.055-.036-.154-.062-.085-.143.03-.036.1.043.134.087l-.049.057" fill="#2f4033" fill-rule="evenodd"/><path d="M975.9,1417.135c.053.015.111.051.073.1s-.085-.013-.119-.047l.045-.053" fill="#2f4033" fill-rule="evenodd"/><path d="M940.345,1451.416c-.032-.023-.058-.06-.023-.091s.06.006.068.045l-.045.045" fill="#2f4033" fill-rule="evenodd"/><path d="M981.462,1450.465l-.081.075c-.045-.057-.011-.089.036-.117a.237.237,0,0,1,.045.042" fill="#2f4033" fill-rule="evenodd"/><path d="M940.391,1451.371l.064.062-.058.043-.051-.06.045-.045" fill="#2f4033" fill-rule="evenodd"/><path d="M951.219,1431.022a6.8,6.8,0,0,0,2.562-1.485c1.637-1.573,2.067-3.595,2.123-5.844-.322.4-.573.74-.85,1.057-1.311,1.5-2.833,2.524-4.96,2.121-.145-.026-.187.036-.228.145-.173.454-.345.91-.531,1.36a.371.371,0,0,0,.1.452c.369.379.714.782,1.093,1.151a.989.989,0,0,1,.365.8C950.876,1431,950.961,1431.11,951.219,1431.022Z" fill="#fff" fill-rule="evenodd"/><path d="M970.86,1429.773a6.844,6.844,0,0,0,2.332,1.255c.185.06.284.034.279-.181a1.383,1.383,0,0,1,.531-1.029c.337-.335.644-.7.979-1.038a.294.294,0,0,0,.07-.365c-.168-.422-.349-.84-.488-1.274-.083-.254-.224-.285-.454-.245a4.178,4.178,0,0,1-2.036-.139,6.056,6.056,0,0,1-2.568-1.8c-.341-.373-.648-.778-.97-1.17a8.75,8.75,0,0,0,.107,1.859A6.644,6.644,0,0,0,970.86,1429.773Z" fill="#fff" fill-rule="evenodd"/><path d="M965.614,1441.045a4.868,4.868,0,0,0-.454-1.963,21.172,21.172,0,0,0-2.116-3.527,10.117,10.117,0,0,0-1.388-1.726c-.062-.056-.121-.141-.211-.1s-.051.132-.055.2a6.664,6.664,0,0,1-.48,1.993c-.377,1-.934,1.916-1.371,2.886a5.136,5.136,0,0,0-.565,1.967,3.255,3.255,0,0,0,3.969,3.314,3.105,3.105,0,0,0,2.671-3.046" fill="#d12d2d" fill-rule="evenodd"/><path d="M951.652,1443.959a.606.606,0,0,0,.341-.121l-.916-.539a.5.5,0,0,0-.307-.049c-1.179.119-2.366.16-3.54.358a14.982,14.982,0,0,0-2.223.512,1.419,1.419,0,0,0-.61.531c-.083.1-.149.132-.2.119a20.517,20.517,0,0,0,1.264,2.238c-.013-.139.1-.249.343-.5a4.609,4.609,0,0,0,.445-.454,4.233,4.233,0,0,1,2.47-1.424A23.737,23.737,0,0,1,951.652,1443.959Z" fill="#0eaec1" fill-rule="evenodd"/><path d="M957.24,1416.779a11.807,11.807,0,0,1,2.967.908.583.583,0,0,1,.1.081,7.466,7.466,0,0,1-1.076.527,40.207,40.207,0,0,0-6.552,3.544,10.706,10.706,0,0,0-3.487,3.759,7.816,7.816,0,0,0-.855,3.2.417.417,0,0,0,.268.465,1.578,1.578,0,0,1,.953,1.9,1.37,1.37,0,0,1-.266.5c-.431.616-.863,1.23-1.311,1.835a.38.38,0,0,0,0,.514,1.962,1.962,0,0,0,1.053.673,9.4,9.4,0,0,0,2.059.358c.168.015.337.019.5.041a1.414,1.414,0,0,0,1.095-.273,15.373,15.373,0,0,1,5.58-2.579,6.937,6.937,0,0,1,.808-.164c.262-.03.254-.155.171-.341a2.991,2.991,0,0,0-1.021-1.232,5.387,5.387,0,0,1-1.364-1.019,1.076,1.076,0,0,1-.188-.328.292.292,0,0,1,.235-.426,1.761,1.761,0,0,1,1.686.39,3.2,3.2,0,0,1,.942,1.513c.124.369.29.725.43,1.093a.242.242,0,0,0,.311.177,7.678,7.678,0,0,1,1.33-.113c.186.006.258-.049.228-.26a3.369,3.369,0,0,0-2.236-2.773c-.2-.081-.446-.113-.473-.4a.254.254,0,0,1,.115-.277c.249-.12.439.025.642.149a5.057,5.057,0,0,1,1.547,1.391,4.2,4.2,0,0,1,.731,2.07c.1-.4.162-.714.256-1.017a4.132,4.132,0,0,1,1.746-2.229c.2-.134.409-.26.62-.38a.3.3,0,0,1,.437.12.315.315,0,0,1-.139.439,3.854,3.854,0,0,1-.492.219,3.346,3.346,0,0,0-2.063,2.694c-.028.164.032.245.194.247a11.058,11.058,0,0,1,1.454.13c.113.017.168-.032.209-.139.2-.5.411-1,.6-1.5a2.349,2.349,0,0,1,1.739-1.6,1.589,1.589,0,0,1,.84.1c.188.06.194.23.121.4a1.663,1.663,0,0,1-.625.74c-.32.209-.64.416-.957.629a2.781,2.781,0,0,0-.995,1.249c-.072.16-.066.241.139.279a14.835,14.835,0,0,1,4.259,1.413,17.779,17.779,0,0,1,2.4,1.486.707.707,0,0,0,.5.147,13.348,13.348,0,0,0,2.826-.388,2.158,2.158,0,0,0,1.113-.635.428.428,0,0,0,.026-.616c-.467-.627-.9-1.277-1.356-1.918a1.566,1.566,0,0,1,.356-2.044.771.771,0,0,1,.215-.134c.45-.12.471-.437.437-.827a7.919,7.919,0,0,0-2.008-4.636,17.488,17.488,0,0,0-4.941-3.676c-1.532-.84-3.123-1.554-4.708-2.285-.094-.045-.185-.094-.313-.16a5.226,5.226,0,0,1,1.179-.5,12.355,12.355,0,0,1,2.343-.558,2.2,2.2,0,0,1,.618-.009,20.265,20.265,0,0,0-11.657,0A4.157,4.157,0,0,1,957.24,1416.779Zm-3.459,12.758a6.8,6.8,0,0,1-2.562,1.485c-.258.089-.343-.019-.33-.239a.989.989,0,0,0-.365-.8c-.379-.369-.723-.773-1.093-1.151a.371.371,0,0,1-.1-.452c.186-.45.358-.906.531-1.36.041-.109.083-.171.228-.145,2.127.4,3.649-.62,4.96-2.121.277-.317.527-.656.85-1.057C955.848,1425.943,955.418,1427.964,953.781,1429.537Zm14.754-5.752c.322.392.629.8.97,1.17a6.056,6.056,0,0,0,2.568,1.8,4.178,4.178,0,0,0,2.036.139c.23-.04.371-.009.454.245.14.433.32.851.488,1.274a.294.294,0,0,1-.07.365c-.335.335-.642.7-.979,1.038a1.383,1.383,0,0,0-.531,1.029c.006.215-.094.241-.279.181a6.844,6.844,0,0,1-2.332-1.255,6.644,6.644,0,0,1-2.217-4.128A8.75,8.75,0,0,1,968.535,1423.785Z" fill="#0eaec1" fill-rule="evenodd"/><path d="M980.251,1444.924c-.013-.017-.034-.028-.045-.045a3.108,3.108,0,0,0-2.278-1.134,40.4,40.4,0,0,0-4.258-.5,1.03,1.03,0,0,0-.644.217c-.205.122-.407.247-.674.409.663.136,1.251.247,1.837.377a22.212,22.212,0,0,1,2.941.893.559.559,0,0,1,.181.122c.567.571,1.128,1.147,1.7,1.714a.358.358,0,0,1,.126.235,20.551,20.551,0,0,0,1.277-2.2C980.364,1445.028,980.311,1445,980.251,1444.924Z" fill="#0eaec1" fill-rule="evenodd"/><path d="M981.722,1430.349a2.313,2.313,0,0,1-.26.748c-.062.136-.194.109-.307.115-.942.043-1.884.081-2.826.124-.5.023-.991.055-1.59.089.2.107.316.181.443.237.81.365,1.62.731,2.434,1.087.22.1.292.183.164.443-.322.654-.6,1.332-.893,2-.047.105-.109.205-.162.307a1.574,1.574,0,0,1-1.754,1.014,16.394,16.394,0,0,0-2.193-.017c-.077,0-.166-.038-.268.058.22.2.445.382.652.586a4.7,4.7,0,0,1,1.511,2.408,2.311,2.311,0,0,1-.5,2.057,3.74,3.74,0,0,1-.936.586c-.151.092-.309.175-.5.279a.639.639,0,0,0,.414.092c1.411.147,2.82.313,4.235.416a2.086,2.086,0,0,1,1.516.72.774.774,0,0,1,.068.079,20.228,20.228,0,0,0,.742-13.427Z" fill="#0eaec1" fill-rule="evenodd"/><path d="M943.672,1443.522c.232-.188.407-.441.759-.473,1.688-.154,3.372-.335,5.056-.507a.679.679,0,0,0,.113-.043,3.756,3.756,0,0,0-.806-.5,2.2,2.2,0,0,1-1.038-2.672,5.726,5.726,0,0,1,1.935-2.617c.06-.053.153-.079.171-.179-.073-.066-.16-.032-.239-.032-.953,0-1.908-.008-2.864,0a.66.66,0,0,1-.527-.22,6.616,6.616,0,0,1-1.2-2.112c-.145-.341-.284-.684-.448-1.016-.092-.185-.073-.266.121-.365.733-.384,1.513-.658,2.257-1.012.2-.092.388-.2.667-.345-.524-.034-.949-.07-1.377-.089-1-.045-2.01-.079-3.016-.126-.264-.013-.379-.1-.381-.305a20.254,20.254,0,0,0,.8,12.638A.188.188,0,0,1,943.672,1443.522Z" fill="#0eaec1" fill-rule="evenodd"/><path d="M973.062,1451.7a19.674,19.674,0,0,0,.077-3.461c-.013-.307-.277-.539-.458-.784a7.6,7.6,0,0,0-2.63-2.1c-.268-.145-.416.092-.58.205s.03.222.089.317c.35.554.691,1.117,1.072,1.65a1.944,1.944,0,0,1,.339.942,4.631,4.631,0,0,1-.4,2.7,2.5,2.5,0,0,1-1.7,1.228.611.611,0,0,0-.284.126,2.023,2.023,0,0,1-1.776.467,5.111,5.111,0,0,1-.97-.147.778.778,0,0,1-.542-1.142,4.608,4.608,0,0,1,.5-.921.479.479,0,0,1,.32-.177,7.817,7.817,0,0,0,2.634-1.063,2.73,2.73,0,0,0,.923-1.108.413.413,0,0,0-.034-.469c-.382-.533-.75-1.078-1.117-1.622a.3.3,0,0,0-.371-.137,15.114,15.114,0,0,1-4.7.386c-1.3-.109-2.577.077-3.868.028a17.864,17.864,0,0,1-3.272-.4.373.373,0,0,0-.473.177c-.335.512-.684,1.019-1.049,1.513a.507.507,0,0,0-.032.6,3.381,3.381,0,0,0,1.935,1.6,12.371,12.371,0,0,0,1.637.51c.06.015.141.023.171.062a2.6,2.6,0,0,1,.657,1.515.6.6,0,0,1-.484.6,4.284,4.284,0,0,1-2.065.162.838.838,0,0,1-.3-.1,8.133,8.133,0,0,0-1.409-.691,2.621,2.621,0,0,1-1.46-2.2,5.587,5.587,0,0,1,0-1.709,1.487,1.487,0,0,1,.239-.614c.394-.59.776-1.187,1.155-1.786.057-.09.234-.2.062-.315-.154-.107-.315-.309-.527-.2a7.034,7.034,0,0,0-3.076,2.711.7.7,0,0,0-.087.33,18.99,18.99,0,0,0,.3,4.491.537.537,0,0,1,0,.132,20.177,20.177,0,0,0,21.35.243C972.921,1452.7,972.994,1452.2,973.062,1451.7Z" fill="#0eaec1" fill-rule="evenodd"/><path d="M949.113,1451.115a8.761,8.761,0,0,1,1.076-3.685,4.268,4.268,0,0,1,2.556-1.906c.42-.143.836-.294,1.309-.462a1.322,1.322,0,0,0-.932-.367,17.655,17.655,0,0,0-4.325.959,3.434,3.434,0,0,0-1.117.967,5.415,5.415,0,0,0-1.183,1.839,20.309,20.309,0,0,0,2.63,2.768A.334.334,0,0,1,949.113,1451.115Z" fill="#0eaec1" fill-rule="evenodd"/><path d="M977.9,1448.566a6.3,6.3,0,0,0-1.878-2.632,3.612,3.612,0,0,0-1.533-.648,21.978,21.978,0,0,0-3.244-.6,1.231,1.231,0,0,0-.912.367c.557.2,1.066.411,1.59.575a4.129,4.129,0,0,1,2.6,2.438,8.314,8.314,0,0,1,.731,3.261.471.471,0,0,1-.049.234,20.2,20.2,0,0,0,2.824-2.852C977.973,1448.726,977.934,1448.675,977.9,1448.566Z" fill="#0eaec1" fill-rule="evenodd"/><path d="M981.664,1429.952c-.111-.285-.188-.582-.3-.867a20.9,20.9,0,0,0-3.11-5.554,20.549,20.549,0,0,0-4.453-4.184,19.951,19.951,0,0,0-4.386-2.287,3.491,3.491,0,0,0-1.839-.347,12.355,12.355,0,0,0-2.343.558,5.226,5.226,0,0,0-1.179.5c.128.066.219.115.313.16,1.584.731,3.176,1.445,4.708,2.285a17.488,17.488,0,0,1,4.941,3.676,7.919,7.919,0,0,1,2.008,4.636c.034.39.013.707-.437.827a.771.771,0,0,0-.215.134,1.566,1.566,0,0,0-.356,2.044c.452.641.889,1.291,1.356,1.918a.428.428,0,0,1-.026.616,2.158,2.158,0,0,1-1.113.635,13.348,13.348,0,0,1-2.826.388.707.707,0,0,1-.5-.147,17.779,17.779,0,0,0-2.4-1.486,14.835,14.835,0,0,0-4.259-1.413c-.205-.038-.211-.119-.139-.279a2.781,2.781,0,0,1,.995-1.249c.317-.213.637-.42.957-.629a1.663,1.663,0,0,0,.625-.74c.073-.168.068-.337-.121-.4a1.589,1.589,0,0,0-.84-.1,2.349,2.349,0,0,0-1.739,1.6c-.19.5-.4,1-.6,1.5-.042.107-.1.156-.209.139a11.058,11.058,0,0,0-1.454-.13c-.162,0-.222-.083-.194-.247a3.346,3.346,0,0,1,2.063-2.694,3.854,3.854,0,0,0,.492-.219.315.315,0,0,0,.139-.439.3.3,0,0,0-.437-.12c-.211.12-.418.247-.62.38a4.132,4.132,0,0,0-1.746,2.229c-.094.3-.156.618-.256,1.017a4.2,4.2,0,0,0-.731-2.07,5.057,5.057,0,0,0-1.547-1.391c-.2-.124-.394-.269-.642-.149a.254.254,0,0,0-.115.277c.026.286.271.318.473.4a3.369,3.369,0,0,1,2.236,2.773c.03.211-.041.266-.228.26a7.678,7.678,0,0,0-1.33.113.242.242,0,0,1-.311-.177c-.139-.367-.305-.723-.43-1.093a3.2,3.2,0,0,0-.942-1.513,1.761,1.761,0,0,0-1.686-.39.292.292,0,0,0-.235.426,1.076,1.076,0,0,0,.188.328,5.387,5.387,0,0,0,1.364,1.019,2.991,2.991,0,0,1,1.021,1.232c.083.186.09.311-.171.341a6.937,6.937,0,0,0-.808.164,15.373,15.373,0,0,0-5.58,2.579,1.414,1.414,0,0,1-1.095.273c-.168-.022-.337-.026-.5-.041a9.4,9.4,0,0,1-2.059-.358,1.962,1.962,0,0,1-1.053-.673.38.38,0,0,1,0-.514c.448-.6.88-1.219,1.311-1.835a1.37,1.37,0,0,0,.266-.5,1.578,1.578,0,0,0-.953-1.9.417.417,0,0,1-.268-.465,7.816,7.816,0,0,1,.855-3.2,10.706,10.706,0,0,1,3.487-3.759,40.207,40.207,0,0,1,6.552-3.544,7.466,7.466,0,0,0,1.076-.527.583.583,0,0,0-.1-.081,11.807,11.807,0,0,0-2.967-.908,2.2,2.2,0,0,0-1.132,0c-.492.183-.993.345-1.477.548a20.463,20.463,0,0,0-5.847,3.7,20.185,20.185,0,0,0-4.005,5.013,20.511,20.511,0,0,0-1.631,3.659,8.008,8.008,0,0,0-.281,1.04c-.062.337.04.454.365.471,1.006.047,2.012.081,3.016.126.428.019.853.055,1.377.089-.279.145-.469.252-.667.345-.744.354-1.524.627-2.257,1.012-.194.1-.213.181-.121.365.164.332.3.674.448,1.016a6.616,6.616,0,0,0,1.2,2.112.66.66,0,0,0,.527.22c.955-.011,1.91-.007,2.864,0,.079,0,.166-.034.239.032-.019.1-.111.126-.171.179a5.726,5.726,0,0,0-1.935,2.617,2.2,2.2,0,0,0,1.038,2.672,3.756,3.756,0,0,1,.806.5.679.679,0,0,1-.113.043c-1.684.172-3.368.352-5.056.507-.352.032-.527.284-.759.473-.062.051-.038.138-.006.209.128.288.251.58.382.867.085.181.179.26.349.055a1.419,1.419,0,0,1,.61-.531,14.982,14.982,0,0,1,2.223-.512c1.174-.2,2.36-.239,3.54-.358a.5.5,0,0,1,.307.049l.916.539a.606.606,0,0,1-.341.121,23.737,23.737,0,0,0-2.937.676,4.233,4.233,0,0,0-2.47,1.424,4.609,4.609,0,0,1-.445.454c-.437.437-.445.443-.1.942a6.282,6.282,0,0,0,.787,1.014,5.432,5.432,0,0,1,1.189-1.85,3.434,3.434,0,0,1,1.117-.967,17.655,17.655,0,0,1,4.325-.959,1.322,1.322,0,0,1,.932.367c-.473.168-.889.318-1.309.462a4.268,4.268,0,0,0-2.556,1.906,8.761,8.761,0,0,0-1.076,3.685.308.308,0,0,0,.151.288c.333.26.644.55.989.793a9.139,9.139,0,0,0,1.238.829.579.579,0,0,0,.008-.155,18.99,18.99,0,0,1-.3-4.491.7.7,0,0,1,.087-.33,7.034,7.034,0,0,1,3.076-2.711c.213-.111.373.09.527.2.171.117-.006.224-.062.315-.379.6-.761,1.2-1.155,1.786a1.487,1.487,0,0,0-.239.614,5.587,5.587,0,0,0,0,1.709,2.621,2.621,0,0,0,1.46,2.2,8.133,8.133,0,0,1,1.409.691.838.838,0,0,0,.3.1,4.284,4.284,0,0,0,2.065-.162.6.6,0,0,0,.484-.6,2.6,2.6,0,0,0-.657-1.515c-.03-.04-.111-.047-.171-.062a12.371,12.371,0,0,1-1.637-.51,3.381,3.381,0,0,1-1.935-1.6.507.507,0,0,1,.032-.6c.365-.494.714-1,1.049-1.513a.373.373,0,0,1,.473-.177,17.864,17.864,0,0,0,3.272.4c1.29.049,2.571-.138,3.868-.028a15.114,15.114,0,0,0,4.7-.386.3.3,0,0,1,.371.137c.367.545.735,1.089,1.117,1.622a.413.413,0,0,1,.034.469,2.73,2.73,0,0,1-.923,1.108,7.817,7.817,0,0,1-2.634,1.063.479.479,0,0,0-.32.177,4.608,4.608,0,0,0-.5.921.778.778,0,0,0,.542,1.142,5.111,5.111,0,0,0,.97.147,2.023,2.023,0,0,0,1.776-.467.611.611,0,0,1,.284-.126,2.5,2.5,0,0,0,1.7-1.228,4.631,4.631,0,0,0,.4-2.7,1.944,1.944,0,0,0-.339-.942c-.381-.533-.721-1.1-1.072-1.65-.058-.094-.239-.211-.089-.317s.313-.35.58-.205a7.6,7.6,0,0,1,2.63,2.1c.181.245.444.477.458.784a19.674,19.674,0,0,1-.077,3.461c-.07.518-.145,1.034-.224,1.6.089-.053.132-.077.175-.106a18.369,18.369,0,0,0,2.01-1.415.5.5,0,0,0,.23-.443,8.314,8.314,0,0,0-.731-3.261,4.129,4.129,0,0,0-2.6-2.438c-.524-.164-1.032-.371-1.59-.575a1.231,1.231,0,0,1,.912-.367,21.978,21.978,0,0,1,3.244.6,3.612,3.612,0,0,1,1.533.648,6.3,6.3,0,0,1,1.878,2.632c.058.181.122.205.266.034.305-.365.575-.755.861-1.132.143-.188.153-.318-.017-.488-.571-.567-1.132-1.144-1.7-1.714a.559.559,0,0,0-.181-.122,22.212,22.212,0,0,0-2.941-.893c-.586-.13-1.174-.241-1.837-.377.268-.162.469-.286.674-.409a1.03,1.03,0,0,1,.644-.217,40.4,40.4,0,0,1,4.258.5,3.108,3.108,0,0,1,2.278,1.134c.011.017.032.028.045.045.115.14.2.126.279-.041.147-.326.294-.652.45-.974.053-.107-.011-.145-.068-.211a2.086,2.086,0,0,0-1.516-.72c-1.415-.1-2.824-.269-4.235-.416a.639.639,0,0,1-.414-.092c.187-.1.345-.187.5-.279a3.74,3.74,0,0,0,.936-.586,2.311,2.311,0,0,0,.5-2.057,4.7,4.7,0,0,0-1.511-2.408c-.207-.2-.431-.388-.652-.586.1-.1.19-.058.268-.058a16.394,16.394,0,0,1,2.193.017,1.574,1.574,0,0,0,1.754-1.014c.053-.1.115-.2.162-.307.3-.667.571-1.345.893-2,.128-.26.057-.345-.164-.443-.814-.356-1.624-.722-2.434-1.087-.126-.057-.245-.13-.443-.237.6-.034,1.095-.066,1.59-.089.942-.043,1.884-.081,2.826-.124.113-.006.245.021.307-.115A1.384,1.384,0,0,0,981.664,1429.952Zm-18.722,14.139a3.255,3.255,0,0,1-3.969-3.314,5.136,5.136,0,0,1,.565-1.967c.437-.97.995-1.886,1.371-2.886a6.664,6.664,0,0,0,.48-1.993c0-.07-.023-.168.055-.2s.149.043.211.1a10.117,10.117,0,0,1,1.388,1.726,21.172,21.172,0,0,1,2.116,3.527,4.868,4.868,0,0,1,.454,1.963A3.105,3.105,0,0,1,962.942,1444.091Z" fill="#fff" fill-rule="evenodd"/></g></svg>