<svg xmlns="http://www.w3.org/2000/svg" width="422.626" height="422.626" viewBox="0 0 422.626 422.626"><g transform="translate(-774.472 -30.212)"><path d="M1197.1,241.525c0-116.718-94.6-211.313-211.313-211.313S774.472,124.807,774.472,241.525s94.6,211.313,211.313,211.313c1.238,0,2.476,0,3.714-.082V288.328H944.1V235.417h45.4V196.456c0-45.152,27.57-69.75,67.852-69.75a368.57,368.57,0,0,1,40.694,2.064v47.215H1070.31c-21.874,0-26.166,10.4-26.166,25.671v33.678h52.415l-6.851,52.911h-45.564V444.666C1132.466,419.325,1197.1,338.019,1197.1,241.525Z" fill="#fff"/></g></svg>