<svg xmlns="http://www.w3.org/2000/svg" width="179.511" height="150.969" viewBox="0 0 179.511 150.969"><g transform="translate(-2651.114 -294.203)"><g opacity="0.49"><path d="M2750.88,444.081c-.059-1.4-1.618-54.088,1.619-63.506,3.028-8.808,11.511-19.012,15.468-20.756s11.332-2.965,14.03-.175c-3.418-3.663-10.253-2.267-10.432-3.139s22.842-10.989,23.741-25.466c-5.755,14.826-32.015,26.861-36.152,30.873s-2.338,3.139-3.058,2.616,1.619-6.977-5.4-13.954c6.655,9.245,1.344,18.238-1.08,23.722-2.7,6.1-4.072,18.97-7.734,19.186-1.978.116-8.993-9.245-13.489-12.559s-14.988-8.6-16.188-9.767c-3.6-3.488-11.151-12.558-13.849-17.965-1.4-2.809-3.777-13.024-8.094-16.686s-11.511-4.593-15.828-2.5c8.684-.707,13.373,3.584,14.269,4.476,4.317,4.3,4.8,13.314,8.933,18.721s8.814,10.466,7.914,11.338-9.532-3.489-11.871-4.71-12.59-3.662-16.367-5.93c-3.467-2.081-7.914-2.791-9.533-12.209a13.967,13.967,0,0,0,7.914,13.6c1.619.873,17.986,6.1,17.986,8.024,0,.712-3.37,2.592-6.655,5.581-5.564,5.064-10.312,10.582-17.626,12.21,7.075-.117,8.033-1.85,9.892-2.791,4.137-2.093,13.67-12.035,17.627-12.558s16.008,5.407,16.008,6.8-1.259,2.616-3.058,4.012c-8.258,6.406-8.993,22.849-26.26,27.732,5.936.756,12.231-3.837,15.108-6.453s12.591-21.454,18.526-21.628,18.166,11.163,19.066,18.837,1.8,43.506,1.8,45.018S2750.94,445.476,2750.88,444.081Z" fill="#06c"/></g><path d="M2830.08,325.458c2.728,4.477-5.516,10-8.873,14.419s-10.072,13.918-15.109,18.372c-8.154,7.209-36.452,20-39.57,17.209s-3.117-16.511-4.076-23.256-1.919-10.7-1.919-13.721c0-3.953.48-10.7,2.878-13.953,3.266-4.434,16.307-5.116,22.782-4.884s23.023,3.954,26.86,4.186S2826.962,320.342,2830.08,325.458Z" fill="#ffc72c"/><path d="M2758.615,322.435c2.158.93,0,5.116-.96,10.465-.994,5.542,1.439,15.349,2.4,23.023.722,5.772,1.2,14.419,2.638,20s-3.357,20.233-17.266,29.3c-10.212,6.659-44.366,8.6-54.2,13.954s-29.118,22.692-38.61,13.488c-4.557-4.419,2.638-10.93,3.357-17.907s-11.991-60.466,10.552-83.024S2748.765,318.19,2758.615,322.435Z" fill="#ffc72c"/><g opacity="0.49"><path d="M2744.226,295.01c0,.814-2.159,23.936-.96,28.588s23.262,10.843,38.011,1.686c-3.957,4.883-10.881,4.8-10.792,5.93.042.522,6.3,1.046,8.454,3.837-12.411-4.186-18.3-1.985-24.641-3.314-6.655-1.395-8.813-2.791-9.713-1.744s4.5,8.721,12.591,10.64c9.532,2.093,31.176,5.872,38.13-9.361-1.678,11.163-11.96,11.192-11.87,11.89.178,1.384,12.59,1.918,20.684-1.309-9.713,6.192-23.023,2.617-30.4,2.791-5.577.132,10.972,2.268,10.792,8.9-3.687-6.192-12.833-6.615-16.548-7.152-4.226-.61-12.41-1.046-18.346-4.36s-7.374-9.768-10.611-9.244-2.7,9.593-.18,14.651,8.453,13.169,3.417,20.145c.809-6.453.18-8.2-.36-9.942s-2.877-6.017-3.957-6.191-.539,4.273-2.158,6.889-6.115,4.448-6.655,9.332c-.539-3.489,1.819-6.125,2.788-7.064a10.857,10.857,0,0,0,3.058-5.843c.763-4.687-2.428-11.338-2.608-15s.539-6.279-.18-6.453-3.6,4.884-5.936,7.674-15.108,13.256-19.784,21.8-3.993,32.429-10.253,39.419c-2.967,3.314-8.183,7.151-12.59,6.1,5.666-1.831,9.353-3.314,12.231-10.639s5.036-30.524,8.273-35.931c1.08-1.918,2.159-3.488,1.619-4.011s-5.364.561-9.712,4.011c-8.9,7.064-12.471,23.954-26.62,23.373,7.794-2.094,10.552-5.989,11.991-7.908s7.794-11.8,9.592-13.372,3.418-3.488,3.418-4.36c0-.827-14.041.876-15.384,1.005s-3.682,1.088-6.919,4.315c.809-3.053,4.922-5.038,4.377-5.262-4.424-1.811-8.834-6.717-8.514-12.616,1.679,9.476,9.713,10.2,12.411,10.552,2.377.307,9.173-.523,14.029-.959,4.123-.371,10.612-1.4,15.828-5.407s16.007-19.361,15.468-20.059-24.821,14.826-32.016,16.221a17.094,17.094,0,0,1-12.23-2.093s7.554,1.221,11.331.175,11.511-5.93,10.972-6.454c-.343-.332-7.645,1.047-13.13-.61-4.686-1.415-9.173-4.273-16.188-4.273,9.113-2.733,12.959,1.539,18.166,2.616,6.745,1.395,17.632-1,23.682-4.186,6.955-3.663,11.991-8.372,13.19-11.163,2.366-5.507,2.158-24.518,2.158-25.8S2744.226,293.615,2744.226,295.01Z" fill="#06c"/></g></g></svg>