<svg xmlns="http://www.w3.org/2000/svg" width="425.864" height="425.863" viewBox="0 0 425.864 425.863"><g transform="translate(-772.853 -569.641)"><path d="M1065.634,569.641h-159.7A133.1,133.1,0,0,0,772.853,702.723v159.7A133.1,133.1,0,0,0,905.935,995.5h159.7a133.1,133.1,0,0,0,133.083-133.082v-159.7A133.1,133.1,0,0,0,1065.634,569.641Zm93.158,292.781a93.26,93.26,0,0,1-93.158,93.158h-159.7a93.26,93.26,0,0,1-93.157-93.158v-159.7a93.26,93.26,0,0,1,93.157-93.158h159.7a93.26,93.26,0,0,1,93.158,93.158Z" fill="#fff"/><path d="M985.785,676.107a106.466,106.466,0,1,0,106.466,106.465A106.47,106.47,0,0,0,985.785,676.107Zm0,173.007a66.542,66.542,0,1,1,66.541-66.542A66.634,66.634,0,0,1,985.785,849.114Z" fill="#fff"/><circle cx="14.187" cy="14.187" r="14.187" transform="translate(1086.049 653.935)" fill="#fff"/></g></svg>