<svg xmlns="http://www.w3.org/2000/svg" width="395.38" height="395.381" viewBox="0 0 395.38 395.381"><path d="M911.657,1918.275H857.6V1743.751h54.056Zm5.394-230.127a31.659,31.659,0,1,0-31.644,31.664A31.664,31.664,0,0,0,917.051,1688.148Zm196.924,134.111c0-46.849-9.9-81.6-64.626-81.6-26.3,0-43.951,13.152-51.157,26.829h-.051v-23.74H945.629v174.524h52.512v-86.653c0-22.693,5.776-44.677,33.905-44.677,27.746,0,28.645,25.951,28.645,46.119v85.211h53.284Zm69.5,118.41V1637.956a46.385,46.385,0,0,0-46.333-46.334H834.428a46.384,46.384,0,0,0-46.333,46.334v302.713A46.384,46.384,0,0,0,834.428,1987h302.714A46.385,46.385,0,0,0,1183.475,1940.669Zm-46.333-318.157a15.462,15.462,0,0,1,15.444,15.444v302.713a15.463,15.463,0,0,1-15.444,15.445H834.428a15.463,15.463,0,0,1-15.444-15.445V1637.956a15.462,15.462,0,0,1,15.444-15.444Z" transform="translate(-788.095 -1591.622)" fill="#fff"/></svg>