<svg xmlns="http://www.w3.org/2000/svg" width="82.401" height="42.867" viewBox="0 0 82.401 42.867"><g transform="translate(-1009.502 -1414.58)"><path d="M1091.9,1436.156l-18.4,21.291h-45.534l-18.466-21.378,18.466-21.489H1073.5l18.4,21.576Zm-2.837.045-16.621-19.462h-43.421l-16.666,19.4,16.666,19.286h43.421l16.621-19.22Zm-11.895,1.52h-5.959q0,.752.068,1.7c.089,1.338.622,2.006,1.605,2.006q1.384,0,1.628-1.94c.013-.162.021-.309.021-.441h2.571a5.326,5.326,0,0,1-1.273,3.416,3.8,3.8,0,0,1-2.946,1.234,3.9,3.9,0,0,1-2.969-1.211,5.245,5.245,0,0,1-1.253-3.307q-.065-1.167-.066-2.093a18.508,18.508,0,0,1,.087-2.07q.441-4.587,4.2-4.586a3.737,3.737,0,0,1,3.056,1.411,5.531,5.531,0,0,1,1.144,3.175q.065.681.087,2.709Zm-10.4-2.511v8.2h-2.681v-8.088a3.782,3.782,0,0,0-.309-1.873,1.415,1.415,0,0,0-1.364-.639q-1.54.065-1.539,1.387v9.213h-2.66v-17.653h2.66v5.4a3.96,3.96,0,0,1,4.376-.132,3.419,3.419,0,0,1,1.319,1.85,9.678,9.678,0,0,1,.2,2.338Zm-10.224.175h-2.637c-.015-.294-.03-.55-.043-.771q-.023-1.941-1.6-1.94-1.452.023-1.628,1.961-.065.927-.066,2.447c0,.631.015,1.426.043,2.38q.2,1.964,1.65,1.963t1.6-2.006c.013-.147.021-.315.021-.507h2.66q-.35,4.785-4.308,4.782a3.946,3.946,0,0,1-3.012-1.211,5.186,5.186,0,0,1-1.253-3.307q-.088-1.255-.066-2.093,0-1.433.066-2.07.415-4.587,4.265-4.586,4.154,0,4.308,4.959Zm-10.376,1.7q0,1.015-.066,2.093a5.118,5.118,0,0,1-1.275,3.307,4.351,4.351,0,0,1-6.025,0,5.027,5.027,0,0,1-1.253-3.307q-.088-1.255-.087-2.093.02-1.433.087-2.07.418-4.587,4.265-4.586,3.8,0,4.265,4.586a19.2,19.2,0,0,1,.089,2.07Zm-10.158,6.325h-2.637q-.045-.24-.132-1.079l-.266-4.1q-.2-2.843-1.956-2.843h-1.473v8.022h-2.639v-17.521H1031q4.617,0,4.64,4.651,0,2.775-1.65,3.768,1.475.859,1.628,3.681.11,1.741.264,4.32a10.079,10.079,0,0,0,.132,1.1Zm38.54-7.911a6.071,6.071,0,0,0-.087-1.279q-.288-1.543-1.582-1.543-1.495.023-1.628,1.94l-.023.882Zm-31.042,1.586q0-.946-.066-2.468-.09-1.941-1.628-1.94-1.495,0-1.6,1.961c-.043.8-.066,1.609-.066,2.447q0,.506.066,2.336.065,2.006,1.6,2.006,1.43,0,1.628-1.963.065-.726.066-2.38Zm-10.533-6.5q0-2.447-2.153-2.447h-1.275v5h1.407q2.023,0,2.021-2.557Z" fill="#fff" fill-rule="evenodd"/></g></svg>