<svg xmlns="http://www.w3.org/2000/svg" width="429.378" height="348.869" viewBox="0 0 429.378 348.869"><g transform="translate(-771.096 -1119.069)"><path d="M1200.474,1160.37a183.535,183.535,0,0,1-50.721,13.9,87.533,87.533,0,0,0,38.725-48.654,175.925,175.925,0,0,1-55.819,21.308,88.02,88.02,0,0,0-152.268,60.193,90.652,90.652,0,0,0,2.039,20.074c-73.182-3.57-137.937-38.644-181.438-92.075a88.048,88.048,0,0,0,27.05,117.649,86.937,86.937,0,0,1-39.771-10.841v.966a88.431,88.431,0,0,0,70.526,86.492,87.865,87.865,0,0,1-23.079,2.9,77.832,77.832,0,0,1-16.666-1.5c11.406,34.86,43.77,60.488,82.253,61.32a176.872,176.872,0,0,1-109.142,37.544,164.814,164.814,0,0,1-21.067-1.208,247.814,247.814,0,0,0,135.039,39.5c161.983,0,250.542-134.18,250.542-250.488,0-3.891-.134-7.648-.322-11.378A175.631,175.631,0,0,0,1200.474,1160.37Z" fill="#fff"/></g></svg>